<svg width="34" height="34" viewBox="0 0 34 34" fill="none" xmlns="http://www.w3.org/2000/svg">
<path d="M8.77439 18.9444C9.24319 18.9444 9.64364 18.7801 9.97575 18.4514C10.3067 18.1226 10.4722 17.7233 10.4722 17.2534C10.4722 16.7846 10.3079 16.3841 9.97914 16.052C9.65042 15.721 9.25109 15.5556 8.78117 15.5556C8.31237 15.5556 7.91192 15.7199 7.57981 16.0486C7.24882 16.3774 7.08333 16.7767 7.08333 17.2466C7.08333 17.7154 7.24769 18.1159 7.57642 18.448C7.90514 18.779 8.30446 18.9444 8.77439 18.9444ZM17.2466 18.9444C17.7154 18.9444 18.1159 18.7801 18.448 18.4514C18.779 18.1226 18.9444 17.7233 18.9444 17.2534C18.9444 16.7846 18.7801 16.3841 18.4514 16.052C18.1226 15.721 17.7233 15.5556 17.2534 15.5556C16.7846 15.5556 16.3841 15.7199 16.052 16.0486C15.721 16.3774 15.5556 16.7767 15.5556 17.2466C15.5556 17.7154 15.7199 18.1159 16.0486 18.448C16.3774 18.779 16.7767 18.9444 17.2466 18.9444ZM25.7188 18.9444C26.1876 18.9444 26.5881 18.7801 26.9202 18.4514C27.2512 18.1226 27.4167 17.7233 27.4167 17.2534C27.4167 16.7846 27.2523 16.3841 26.9236 16.052C26.5949 15.721 26.1955 15.5556 25.7256 15.5556C25.2568 15.5556 24.8564 15.7199 24.5242 16.0486C24.1933 16.3774 24.0278 16.7767 24.0278 17.2466C24.0278 17.7154 24.1921 18.1159 24.5209 18.448C24.8496 18.779 25.2489 18.9444 25.7188 18.9444ZM17.2551 32.5C15.1472 32.5 13.1647 32.1001 11.3076 31.3003C9.4516 30.4994 7.8368 29.4127 6.46317 28.0402C5.08954 26.6689 4.00227 25.0557 3.20136 23.2009C2.40045 21.346 2 19.3641 2 17.2551C2 15.1472 2.39989 13.1647 3.19967 11.3076C4.00057 9.4516 5.08728 7.8368 6.45978 6.46317C7.83115 5.08954 9.44426 4.00227 11.2991 3.20136C13.154 2.40045 15.1359 2 17.2449 2C19.3528 2 21.3353 2.39989 23.1924 3.19967C25.0484 4.00057 26.6632 5.08728 28.0368 6.45978C29.4105 7.83115 30.4977 9.44426 31.2986 11.2991C32.0995 13.154 32.5 15.1359 32.5 17.2449C32.5 19.3528 32.1001 21.3353 31.3003 23.1924C30.4994 25.0484 29.4127 26.6632 28.0402 28.0368C26.6689 29.4105 25.0557 30.4977 23.2009 31.2986C21.346 32.0995 19.3641 32.5 17.2551 32.5Z" fill="#A3A3A3"/>
</svg>
