<svg width="34" height="34" viewBox="0 0 34 34" fill="none" xmlns="http://www.w3.org/2000/svg">
<path d="M17 2.125C20.9451 2.125 24.7286 3.69218 27.5182 6.48179C30.3078 9.27139 31.875 13.0549 31.875 17C31.875 20.9451 30.3078 24.7286 27.5182 27.5182C24.7286 30.3078 20.9451 31.875 17 31.875C13.0549 31.875 9.27139 30.3078 6.48179 27.5182C3.69218 24.7286 2.125 20.9451 2.125 17C2.125 13.0549 3.69218 9.27139 6.48179 6.48179C9.27139 3.69218 13.0549 2.125 17 2.125ZM15.147 19.9346L11.8426 16.6281C11.7242 16.5097 11.5835 16.4157 11.4288 16.3516C11.274 16.2875 11.1081 16.2545 10.9406 16.2545C10.773 16.2545 10.6071 16.2875 10.4524 16.3516C10.2976 16.4157 10.157 16.5097 10.0385 16.6281C9.79926 16.8674 9.66485 17.1918 9.66485 17.5302C9.66485 17.8685 9.79926 18.193 10.0385 18.4322L14.246 22.6398C14.3641 22.7588 14.5047 22.8533 14.6595 22.9178C14.8143 22.9823 14.9803 23.0155 15.1481 23.0155C15.3158 23.0155 15.4818 22.9823 15.6367 22.9178C15.7915 22.8533 15.932 22.7588 16.0501 22.6398L24.7626 13.9251C24.8827 13.8072 24.9782 13.6666 25.0436 13.5115C25.1091 13.3565 25.1432 13.19 25.1439 13.0217C25.1447 12.8534 25.1122 12.6866 25.0482 12.5309C24.9842 12.3752 24.89 12.2338 24.771 12.1147C24.6521 11.9956 24.5108 11.9013 24.3552 11.8371C24.1996 11.7729 24.0328 11.7402 23.8645 11.7408C23.6962 11.7413 23.5297 11.7752 23.3746 11.8405C23.2194 11.9058 23.0787 12.0011 22.9606 12.121L15.147 19.9346Z" fill="#1A932D"/>
</svg>
