<svg width="34" height="34" viewBox="0 0 34 34" fill="none" xmlns="http://www.w3.org/2000/svg">
<g clip-path="url(#clip0_4462_39)">
<path d="M16.665 2C24.7645 2 31.33 8.56552 31.33 16.665C31.33 24.7645 24.7645 31.33 16.665 31.33C8.56552 31.33 2 24.7645 2 16.665C2 8.56552 8.56552 2 16.665 2ZM16.665 21.0645C16.2761 21.0645 15.9031 21.219 15.628 21.494C15.353 21.7691 15.1985 22.1421 15.1985 22.531C15.1985 22.9199 15.353 23.293 15.628 23.568C15.9031 23.843 16.2761 23.9975 16.665 23.9975C17.0539 23.9975 17.427 23.843 17.702 23.568C17.977 23.293 18.1315 22.9199 18.1315 22.531C18.1315 22.1421 17.977 21.7691 17.702 21.494C17.427 21.219 17.0539 21.0645 16.665 21.0645ZM16.665 7.866C16.3058 7.86605 15.9591 7.99792 15.6907 8.23661C15.4223 8.47529 15.2508 8.80419 15.2088 9.16092L15.1985 9.3325V18.1315C15.1989 18.5053 15.342 18.8648 15.5986 19.1366C15.8552 19.4084 16.2059 19.5719 16.5791 19.5939C16.9522 19.6158 17.3196 19.4944 17.6062 19.2545C17.8929 19.0145 18.0771 18.6742 18.1212 18.3031L18.1315 18.1315V9.3325C18.1315 8.94356 17.977 8.57055 17.702 8.29553C17.427 8.02051 17.0539 7.866 16.665 7.866Z" fill="#F99333"/>
</g>
<defs>
<clipPath id="clip0_4462_39">
<rect width="34" height="34" fill="white"/>
</clipPath>
</defs>
</svg>
